General
Complete name                    : Moulin_Rouge.mkv
Format                           : Matroska
File size                        : 2.08 GiB
Duration                         : 2h 2mn
Overall bit rate                 : 2 428 Kbps


Video
ID                               : 1
Format                           : AVC

Duration                         : 2h 2mn
Bit rate                         : 1 982 Kbps
Nominal bit rate                 : 2 008 Kbps
Width                            : 718 pixels
Height                           : 436 pixels
Display aspect ratio             : 2.35
Frame rate                       : 25.000 fps
Resolution                       : 24 bits
Colorimetry                      : 4:2:0
Scan type                        : Progressive
Bits/(Pixel*Frame)               : 0.253
Stream size                      : 1.70 GiB (82%)
Writing library                  : x264 core 79
ip_ratio=1.40 / aq=1:1.00

Audio
ID                               : 2
Format                           : AC-3
Format/Info                      : Audio Coding 3
Codec ID                         : A_AC3
Duration                         : 2h 2mn
Bit rate mode                    : Constant
Bit rate                         : 384 Kbps
Channel(s)                       : 6 channels
Channel positions                : Front: L C R, Surround: L R, LFE
Sampling rate                    : 48.0 KHz
Stream size                      : 337 MiB (16%)
Language                         : English

Text #1
Language                         : Croatian

Text #2
Language                         : Czech

Text #3
Language                         : Danish

Text #4
Language                         : Dutch

Text #5
Language                         : English

Text #6
Language                         : Finnish

Text #7
Language                         : ??ARABIC??


Text #8
Language                         : Hungarian

Text #9
Language                         : Icelandic

Text #10
Language                         : Norwegian

Text #11
Language                         : Polish

Text #12
Language                         : Portuguese

Text #13
Language                         : Swedish

Text #14
Language                         : Turkish
